# xmcd CD database file
#
# Track frame offsets:
#	225
#	13405
#	25188
#	37095
#	50271
#	62325
#	71371
#	91648
#	104475
#	122975
#	137956
#	149404
#	164644
#	174703
#	186575
#	200079
#
# Disc length: 2805 seconds
#
# Revision: 1
# Processed by: cddbd v1.5.2PL0 Copyright (c) Steve Scherf et al.
# Submitted via: CDex 1.51
#
DISCID=f50af210
DTITLE=Various Artist - Classic Country Collection
DYEAR=2000
DGENRE=Country
TTITLE0=The Bellamy Brothers_Get Into Reggae Cowboy
TTITLE1=Stella Parton_Steady As The Rain
TTITLE2=Don Williams_Tulsa Time
TTITLE3=Boxcar Willie_San Antonio Rose
TTITLE4=Conway Twitty_Maybe Baby
TTITLE5=Buck Owens and His Buckaroos_Dang Me
TTITLE6=Emmylou Harries and Carl Jackson_Love Hurts
TTITLE7=David Allen Coe_Lead Me Not Into Temptation
TTITLE8=Charlene Carter_I Knew The Bride
TTITLE9=Jahn Anderson_Country Confort
TTITLE10=Ray Price_My Shoes Keep Walking Back (To You)
TTITLE11=Sammy's Saloon_Highway Calling
TTITLE12=Don Gibson_Oh Lonesome Me
TTITLE13=Johnny Cash_Ring Of Fire
TTITLE14=Lynn Anderson_Rose Garden
TTITLE15=The Everly Brothers_All I Have To Do Is Dream
EXTD=YEAR: 2000
EXTT0=
EXTT1=
EXTT2=
EXTT3=
EXTT4=
EXTT5=
EXTT6=
EXTT7=
EXTT8=
EXTT9=
EXTT10=
EXTT11=
EXTT12=
EXTT13=
EXTT14=
EXTT15=
PLAYORDER=
